# xmcd CD database file
#
# Track frame offsets:
#	150
#	16022
#	31154
#	48234
#	66563
#	88318
#	110707
#	129295
#	154169
#	171134
#	191411
#	209282
#	228177
#
# Disc length: 3170 seconds
#
# Revision: 0
# Processed by: cddbd v1.5.2PL0 Copyright (c) Steve Scherf et al.
# Submitted via: CDex 1.70beta2
#
DISCID=a70c600d
DTITLE=Cubaboarischen - A Insel so schee wias Edelweiß
DYEAR=1900
DGENRE=Jazz
TTITLE0=Yu Ya
TTITLE1=El Cafetal
TTITLE2=Cantinero De Cuba
TTITLE3=Rehragout-Manisero
TTITLE4=Tu recuerdos conmigo
TTITLE5=Pa La Costa
TTITLE6=Urlaubszeitbolero
TTITLE7=La Negra Tomasa
TTITLE8=Compadre Pedro Juan
TTITLE9=Cha Cha De Cuba
TTITLE10=Stadltür-Marinero
TTITLE11=Perfidia
TTITLE12=Polka vom Kaufmann Schorsch
EXTD=
EXTT0=
EXTT1=
EXTT2=
EXTT3=
EXTT4=
EXTT5=
EXTT6=
EXTT7=
EXTT8=
EXTT9=
EXTT10=
EXTT11=
EXTT12=
PLAYORDER=
